<?xml version="1.0" standalone="no"?>
<!DOCTYPE svg PUBLIC "-//W3C//DTD SVG 20010904//EN"
 "http://www.w3.org/TR/2001/REC-SVG-20010904/DTD/svg10.dtd">
<svg version="1.0" xmlns="http://www.w3.org/2000/svg"
 width="300.000000pt" height="263.000000pt" viewBox="0 0 300.000000 263.000000"
 preserveAspectRatio="xMidYMid meet">
<metadata>
Created by potrace 1.10, written by Peter Selinger 2001-2011
</metadata>
<g transform="translate(0.000000,263.000000) scale(0.100000,-0.100000)"
fill="#000000" stroke="none">
<path d="M1137 2262 c-16 -17 -17 -85 -17 -872 0 -802 1 -854 17 -866 10 -8
29 -13 43 -11 19 1 26 -3 28 -20 l3 -23 213 0 c388 0 568 25 710 98 201 104
333 275 398 514 19 70 22 109 22 253 1 192 -18 288 -78 420 -128 277 -322 441
-587 494 -30 6 -67 14 -84 17 -16 4 -170 9 -341 11 -293 3 -311 3 -327 -15z
m658 -23 c98 -12 224 -48 295 -84 191 -97 340 -298 391 -525 26 -120 29 -338
5 -447 -56 -256 -203 -456 -408 -557 -164 -81 -269 -96 -665 -96 l-273 0 0
863 0 862 282 -2 c156 -1 324 -8 373 -14z m705 -1186 c-30 -101 -65 -175 -114
-242 -48 -66 -105 -131 -117 -131 -4 0 -22 -13 -40 -30 -18 -16 -64 -45 -103
-63 -89 -43 -116 -52 -116 -37 0 6 5 8 10 5 6 -3 10 -3 10 2 0 4 31 23 69 41
94 45 191 128 262 224 59 80 129 211 129 242 0 9 4 16 9 16 6 0 6 -11 1 -27z"/>
<path d="M1380 1391 l0 -664 188 6 c274 7 394 45 521 163 117 108 173 267 173
494 0 295 -102 487 -312 587 -121 58 -161 65 -378 72 l-192 6 0 -664z m250
606 c186 -7 254 -20 350 -65 147 -69 245 -255 257 -487 16 -299 -81 -512 -276
-609 -111 -56 -188 -72 -389 -82 -59 -3 -109 -7 -113 -10 -25 -15 -29 48 -31
648 -3 554 -1 625 12 618 8 -4 94 -10 190 -13z"/>
<path d="M430 2012 c-12 -13 -15 -46 -15 -153 0 -117 3 -140 18 -157 11 -12
26 -18 41 -15 17 4 25 -1 29 -16 5 -20 12 -21 124 -21 l118 0 0 145 c0 131 -2
145 -17 145 -13 0 -18 8 -18 29 0 54 -19 61 -148 61 -97 -1 -120 -4 -132 -18z
m260 -154 l0 -153 -125 0 -125 0 0 153 0 152 125 0 125 0 0 -152z"/>
<path d="M430 1063 c-20 -25 -21 -37 -18 -161 3 -120 5 -135 23 -148 11 -8 30
-12 42 -9 16 4 22 0 25 -16 3 -19 9 -21 122 -20 l119 0 0 143 c0 125 -2 143
-16 146 -11 2 -17 13 -17 32 0 48 -29 60 -151 60 -105 0 -108 -1 -129 -27z
m260 -153 l0 -150 -125 0 -125 0 0 150 0 150 125 0 125 0 0 -150z"/>
</g>
</svg>
